<?xml version="1.0" encoding="UTF-8"?>
<!-- Generated by Pixelmator Pro 3.7 -->
<svg width="300" height="80" viewBox="0 0 300 80" xmlns="http://www.w3.org/2000/svg">
    <path id="Path" fill="#0b1221" stroke="none" d="M 14 2 L 286 2 C 292.627411 2 298 7.372581 298 14 L 298 66 C 298 72.627419 292.627411 78 286 78 L 14 78 C 7.372583 78 2 72.627419 2 66 L 2 14 C 2 7.372581 7.372583 2 14 2 Z"/>
    <g id="Group">
        <linearGradient id="linearGradient1" x1="42" y1="18" x2="86" y2="18" gradientUnits="userSpaceOnUse">
            <stop offset="1e-05" stop-color="#6c8cff" stop-opacity="1"/>
            <stop offset="1" stop-color="#52e5a8" stop-opacity="1"/>
        </linearGradient>
        <path id="path1" fill="url(#linearGradient1)" stroke="none" d="M 86 40 C 86 52.150265 76.150269 62 64 62 C 51.849735 62 42 52.150265 42 40 C 42 27.849735 51.849735 18 64 18 C 76.150269 18 86 27.849735 86 40 Z"/>
        <path id="path2" fill="#000000" stroke="#0b1221" stroke-width="4" stroke-linecap="round" d="M 54 40 L 74 40 M 64 30 L 64 50"/>
    </g>
    <text id="Harmony" xml:space="preserve" x="95" y="52" font-family="Helvetica" font-size="28" fill="#e8eeff">Harmony</text>
    <text id="Go" xml:space="preserve" x="213" y="52" font-family="Helvetica" font-size="28" fill="#41b0f6">Go</text>
</svg>
